<svg width="29" height="22" viewBox="0 0 29 22" fill="none" xmlns="http://www.w3.org/2000/svg">
<path d="M15.9619 0.499931C14.9181 0.195699 13.9153 0.61229 12.9533 1.21911C11.9873 1.82857 10.8147 2.79497 9.34769 4.00408L8.04746 5.0757C7.79813 5.28119 7.69731 5.36395 7.59739 5.43841C6.7513 6.0689 5.73663 6.43315 4.68272 6.48473C4.55825 6.49082 4.42782 6.49108 4.10472 6.49108L4.05274 6.49107C3.77423 6.49099 3.55963 6.49093 3.36776 6.5124C1.77197 6.69096 0.512401 7.95053 0.333839 9.54632C0.31237 9.73819 0.312431 9.95279 0.312509 10.2313V11.7687C0.312431 12.0472 0.31237 12.2618 0.333839 12.4537C0.512401 14.0495 1.77197 15.3091 3.36776 15.4876C3.55963 15.5091 3.77423 15.509 4.05276 15.5089L4.10472 15.5089C4.42782 15.5089 4.55825 15.5092 4.68272 15.5153C5.73663 15.5669 6.7513 15.9311 7.59739 16.5616C7.69731 16.6361 7.79813 16.7188 8.04746 16.9243L9.34768 17.9959C10.8147 19.205 11.9872 20.1714 12.9533 20.7809C13.9153 21.3877 14.9181 21.8043 15.9619 21.5001C16.3083 21.3991 16.6367 21.2442 16.9349 21.0411C17.8336 20.4291 18.1499 19.3903 18.2934 18.262C18.4376 17.1289 18.4375 15.6094 18.4375 13.7084V8.29166C18.4375 6.39058 18.4376 4.87111 18.2934 3.73798C18.1499 2.60973 17.8336 1.57088 16.9349 0.958899C16.6367 0.755788 16.3083 0.600902 15.9619 0.499931Z" fill="#202020"/>
<path d="M23.3146 7.98874C22.9485 7.62263 22.3549 7.62263 21.9888 7.98874C21.6227 8.35486 21.6227 8.94845 21.9888 9.31457L23.9775 11.3033L21.9888 13.292C21.6227 13.6582 21.6227 14.2518 21.9888 14.6179C22.3549 14.984 22.9485 14.984 23.3146 14.6179L25.3034 12.6291L27.2921 14.6179C27.6582 14.984 28.2518 14.984 28.6179 14.6179C28.984 14.2518 28.984 13.6582 28.6179 13.292L26.6292 11.3033L28.6179 9.31457C28.984 8.94845 28.984 8.35486 28.6179 7.98874C28.2518 7.62263 27.6582 7.62263 27.2921 7.98874L25.3034 9.97748L23.3146 7.98874Z" fill="#202020"/>
</svg>
