<svg width="390" height="301" viewBox="0 0 390 301" fill="none" xmlns="http://www.w3.org/2000/svg">
<path d="M51 76H110C109.833 76 109.5 65.8 109.5 25C109.5 61.0255 70.5 74.0106 51 76Z" fill="#E2BE7F"/>
<path d="M333 76H274C274.167 76 274.5 65.8 274.5 25C274.5 61.0255 313.5 74.0106 333 76Z" fill="#E2BE7F"/>
<path d="M109 30C109 13.4315 122.431 0 139 0H245C261.569 0 275 13.4315 275 30V90H109V30Z" fill="#E2BE7F"/>
<path d="M0 106C0 89.4315 13.4315 76 30 76H360C376.569 76 390 89.4315 390 106V261C390 283.091 372.091 301 350 301H40C17.9086 301 0 283.091 0 261V106Z" fill="#E2BE7F"/>
</svg>
