<svg width="908" height="170" viewBox="0 0 908 170" fill="none" xmlns="http://www.w3.org/2000/svg">
<g clip-path="url(#clip0_103_468)">
<path d="M2.18149 60.8934V111.636" stroke="#1D1D1B" stroke-width="4" stroke-miterlimit="10"/>
<path d="M12.3363 50.7427V121.787" stroke="#1D1D1B" stroke-width="4" stroke-miterlimit="10"/>
<path d="M25.0217 35.5221V137.007" stroke="#1D1D1B" stroke-width="4" stroke-miterlimit="10"/>
<path d="M35.1765 27.9117V142.088" stroke="#1D1D1B" stroke-width="4" stroke-miterlimit="10"/>
<path d="M45.3313 5.06995V164.919" stroke="#1D1D1B" stroke-width="4" stroke-miterlimit="10"/>
<path d="M58.0275 17.761V152.239" stroke="#1D1D1B" stroke-width="4" stroke-miterlimit="10"/>
<path d="M68.1823 35.5221V137.007" stroke="#1D1D1B" stroke-width="4" stroke-miterlimit="10"/>
<path d="M78.3263 48.2131V124.327" stroke="#1D1D1B" stroke-width="4" stroke-miterlimit="10"/>
<path d="M91.0225 5.06995V164.919" stroke="#1D1D1B" stroke-width="4" stroke-miterlimit="10"/>
<path d="M101.177 25.3713V144.629" stroke="#1D1D1B" stroke-width="4" stroke-miterlimit="10"/>
<path d="M111.332 40.5919V131.937" stroke="#1D1D1B" stroke-width="4" stroke-miterlimit="10"/>
<path d="M124.017 43.1323V129.397" stroke="#1D1D1B" stroke-width="4" stroke-miterlimit="10"/>
<path d="M134.172 53.2831V119.246" stroke="#1D1D1B" stroke-width="4" stroke-miterlimit="10"/>
<path d="M144.327 45.6727V126.868" stroke="#1D1D1B" stroke-width="4" stroke-miterlimit="10"/>
<path d="M157.012 50.7427V121.787" stroke="#1D1D1B" stroke-width="4" stroke-miterlimit="10"/>
<path d="M167.167 50.7427V121.787" stroke="#1D1D1B" stroke-width="4" stroke-miterlimit="10"/>
<path d="M177.322 30.4521V139.548" stroke="#1D1D1B" stroke-width="4" stroke-miterlimit="10"/>
<path d="M190.018 38.0625V134.478" stroke="#1D1D1B" stroke-width="4" stroke-miterlimit="10"/>
<path d="M200.173 15.2206V154.768" stroke="#1D1D1B" stroke-width="4" stroke-miterlimit="10"/>
<path d="M210.317 2.54041V167.46" stroke="#1D1D1B" stroke-width="4" stroke-miterlimit="10"/>
<path d="M223.013 17.761V152.239" stroke="#1D1D1B" stroke-width="4" stroke-miterlimit="10"/>
<path d="M233.168 5.06995V164.919" stroke="#1D1D1B" stroke-width="4" stroke-miterlimit="10"/>
<path d="M245.853 40.5919V131.937" stroke="#1D1D1B" stroke-width="4" stroke-miterlimit="10"/>
<path d="M256.008 55.8235V116.717" stroke="#1D1D1B" stroke-width="4" stroke-miterlimit="10"/>
<path d="M266.163 45.6727V126.868" stroke="#1D1D1B" stroke-width="4" stroke-miterlimit="10"/>
<path d="M278.859 25.3713V144.629" stroke="#1D1D1B" stroke-width="4" stroke-miterlimit="10"/>
<path d="M289.014 0V170" stroke="#1D1D1B" stroke-width="4" stroke-miterlimit="10"/>
<path d="M299.158 0V170" stroke="#1D1D1B" stroke-width="4" stroke-miterlimit="10"/>
<path d="M311.854 17.761V152.239" stroke="#1D1D1B" stroke-width="4" stroke-miterlimit="10"/>
<path d="M322.009 35.5221V137.007" stroke="#1D1D1B" stroke-width="4" stroke-miterlimit="10"/>
<path d="M332.164 58.353V114.177" stroke="#1D1D1B" stroke-width="4" stroke-miterlimit="10"/>
<path d="M344.849 60.8934V111.636" stroke="#1D1D1B" stroke-width="4" stroke-miterlimit="10"/>
<path d="M355.004 50.7427V121.787" stroke="#1D1D1B" stroke-width="4" stroke-miterlimit="10"/>
<path d="M365.159 35.5221V137.007" stroke="#1D1D1B" stroke-width="4" stroke-miterlimit="10"/>
<path d="M377.844 27.9117V142.088" stroke="#1D1D1B" stroke-width="4" stroke-miterlimit="10"/>
<path d="M387.999 5.06995V164.919" stroke="#1D1D1B" stroke-width="4" stroke-miterlimit="10"/>
<path d="M398.154 17.761V152.239" stroke="#1D1D1B" stroke-width="4" stroke-miterlimit="10"/>
<path d="M410.85 35.5221V137.007" stroke="#1D1D1B" stroke-width="4" stroke-miterlimit="10"/>
<path d="M421.005 48.2131V124.327" stroke="#1D1D1B" stroke-width="4" stroke-miterlimit="10"/>
<path d="M431.149 5.06995V164.919" stroke="#1D1D1B" stroke-width="4" stroke-miterlimit="10"/>
<path d="M443.845 25.3713V144.629" stroke="#1D1D1B" stroke-width="4" stroke-miterlimit="10"/>
<path d="M454 40.5919V131.937" stroke="#1D1D1B" stroke-width="4" stroke-miterlimit="10"/>
<path d="M464.155 43.1323V129.397" stroke="#1D1D1B" stroke-width="4" stroke-miterlimit="10"/>
<path d="M476.84 53.2831V119.246" stroke="#1D1D1B" stroke-width="4" stroke-miterlimit="10"/>
<path d="M486.995 45.6727V126.868" stroke="#1D1D1B" stroke-width="4" stroke-miterlimit="10"/>
<path d="M497.15 50.7427V121.787" stroke="#1D1D1B" stroke-width="4" stroke-miterlimit="10"/>
<path d="M509.846 50.7427V121.787" stroke="#1D1D1B" stroke-width="4" stroke-miterlimit="10"/>
<path d="M519.99 30.4521V139.548" stroke="#1D1D1B" stroke-width="4" stroke-miterlimit="10"/>
<path d="M530.145 38.0625V134.478" stroke="#1D1D1B" stroke-width="4" stroke-miterlimit="10"/>
<path d="M542.841 15.2206V154.768" stroke="#1D1D1B" stroke-width="4" stroke-miterlimit="10"/>
<path d="M552.996 2.54041V167.46" stroke="#1D1D1B" stroke-width="4" stroke-miterlimit="10"/>
<path d="M563.151 17.761V152.239" stroke="#1D1D1B" stroke-width="4" stroke-miterlimit="10"/>
<path d="M575.836 5.06995V164.919" stroke="#1D1D1B" stroke-width="4" stroke-miterlimit="10"/>
<path d="M585.991 40.5919V131.937" stroke="#1D1D1B" stroke-width="4" stroke-miterlimit="10"/>
<path d="M596.146 55.8235V116.717" stroke="#1D1D1B" stroke-width="4" stroke-miterlimit="10"/>
<path d="M608.831 45.6727V126.868" stroke="#1D1D1B" stroke-width="4" stroke-miterlimit="10"/>
<path d="M618.986 25.3713V144.629" stroke="#1D1D1B" stroke-width="4" stroke-miterlimit="10"/>
<path d="M629.141 0V170" stroke="#1D1D1B" stroke-width="4" stroke-miterlimit="10"/>
<path d="M641.837 0V170" stroke="#1D1D1B" stroke-width="4" stroke-miterlimit="10"/>
<path d="M651.981 17.761V152.239" stroke="#1D1D1B" stroke-width="4" stroke-miterlimit="10"/>
<path d="M662.136 35.5221V137.007" stroke="#1D1D1B" stroke-width="4" stroke-miterlimit="10"/>
<path d="M674.832 58.353V114.177" stroke="#1D1D1B" stroke-width="4" stroke-miterlimit="10"/>
<path d="M684.987 60.8934V111.636" stroke="#1D1D1B" stroke-width="4" stroke-miterlimit="10"/>
<path d="M697.672 50.7427V121.787" stroke="#1D1D1B" stroke-width="4" stroke-miterlimit="10"/>
<path d="M707.827 35.5221V137.007" stroke="#1D1D1B" stroke-width="4" stroke-miterlimit="10"/>
<path d="M717.982 27.9117V142.088" stroke="#1D1D1B" stroke-width="4" stroke-miterlimit="10"/>
<path d="M730.678 5.06995V164.919" stroke="#1D1D1B" stroke-width="4" stroke-miterlimit="10"/>
<path d="M740.822 17.761V152.239" stroke="#1D1D1B" stroke-width="4" stroke-miterlimit="10"/>
<path d="M750.977 35.5221V137.007" stroke="#1D1D1B" stroke-width="4" stroke-miterlimit="10"/>
<path d="M763.673 48.2131V124.327" stroke="#1D1D1B" stroke-width="4" stroke-miterlimit="10"/>
<path d="M773.828 5.06995V164.919" stroke="#1D1D1B" stroke-width="4" stroke-miterlimit="10"/>
<path d="M783.982 25.3713V144.629" stroke="#1D1D1B" stroke-width="4" stroke-miterlimit="10"/>
<path d="M796.668 40.5919V131.937" stroke="#1D1D1B" stroke-width="4" stroke-miterlimit="10"/>
<path d="M806.823 43.1323V129.397" stroke="#1D1D1B" stroke-width="4" stroke-miterlimit="10"/>
<path d="M816.977 53.2831V119.246" stroke="#1D1D1B" stroke-width="4" stroke-miterlimit="10"/>
<path d="M829.663 45.6727V126.868" stroke="#1D1D1B" stroke-width="4" stroke-miterlimit="10"/>
<path d="M839.818 50.7427V121.787" stroke="#1D1D1B" stroke-width="4" stroke-miterlimit="10"/>
<path d="M849.972 50.7427V121.787" stroke="#1D1D1B" stroke-width="4" stroke-miterlimit="10"/>
<path d="M862.669 30.4521V139.548" stroke="#1D1D1B" stroke-width="4" stroke-miterlimit="10"/>
<path d="M872.813 12.6912V157.309" stroke="#1D1D1B" stroke-width="4" stroke-miterlimit="10"/>
<path d="M882.967 15.2206V154.768" stroke="#1D1D1B" stroke-width="4" stroke-miterlimit="10"/>
<path d="M895.664 30.4521V139.548" stroke="#1D1D1B" stroke-width="4" stroke-miterlimit="10"/>
<path d="M905.819 63.4338V109.107" stroke="#1D1D1B" stroke-width="4" stroke-miterlimit="10"/>
</g>
<defs>
<clipPath id="clip0_103_468">
<rect width="908" height="170" fill="white"/>
</clipPath>
</defs>
</svg>
